<svg xmlns="http://www.w3.org/2000/svg" width="97" height="31" viewBox="0 0 97 31">
    <g fill="none" fill-rule="nonzero">
        <path fill="#FFF" d="M34.973 23.991V8.872h3.274v2.186c1.17-1.432 2.963-2.577 4.912-2.577v3.253a5.287 5.287 0 0 0-1.014-.1c-1.401 0-3.248.936-3.899 2.03v10.301h-3.273v.026zM43.341 16.422c0-4.372 3.197-7.912 7.666-7.912 4.523 0 7.407 3.435 7.407 8.197v.803H46.771c.26 2.264 1.95 4.163 4.782 4.163 1.507 0 3.223-.601 4.314-1.692l1.507 2.16c-1.533 1.432-3.742 2.212-6.132 2.212-4.544.03-7.9-3.146-7.9-7.931zm7.64-5.231c-2.78 0-4.104 2.16-4.21 3.982h8.498c-.103-1.8-1.325-3.985-4.287-3.985v.003zM60.26 23.991V8.872h3.274v15.12zM66.21 27.869l1.534-2.368c1.247 1.404 2.803 1.952 4.804 1.952 2.157 0 4.47-1.015 4.47-4.213v-1.72c-1.165 1.534-2.881 2.524-4.856 2.524-3.847 0-6.706-2.784-6.706-7.755 0-4.914 2.78-7.755 6.706-7.755 1.902 0 3.638.833 4.86 2.472V8.9h3.274v14.343c0 5.44-4.054 6.92-7.745 6.92-2.546-.028-4.443-.601-6.34-2.293zm10.838-8.796V13.4c-.754-1.094-2.34-2.006-3.873-2.006-2.624 0-4.288 1.951-4.288 4.866 0 2.915 1.664 4.815 4.288 4.815 1.534.002 3.119-.91 3.873-2.001v-.001zM93.394 23.991v-9.446c0-2.368-1.221-3.123-3.067-3.123-1.664 0-3.093 1.015-3.873 2.006v10.591h-3.273V8.874h3.274v2.031c1.014-1.197 2.963-2.42 5.354-2.42 3.248 0 4.886 1.743 4.886 4.866v10.64h-3.301z"/>
        <path fill="#FFCB4D" d="M24.318 19.832c0 3.565-.961 4.528-4.522 4.528H4.827c-3.56 0-4.522-.963-4.522-4.528V4.787l6.68 6.688c.7-1.38 5.326-10.7 5.326-10.7s4.653 9.317 5.328 10.696l6.68-6.684v15.045z"/>
        <path fill="#FFF" d="M60.091 6.897v-3.06h3.05v3.06z"/>
    </g>
</svg>
